<?xml version="1.0" standalone="no"?>
<!DOCTYPE svg PUBLIC "-//W3C//DTD SVG 20010904//EN"
 "http://www.w3.org/TR/2001/REC-SVG-20010904/DTD/svg10.dtd">
<svg version="1.0" xmlns="http://www.w3.org/2000/svg"
 width="32.000000pt" height="32.000000pt" viewBox="0 0 32.000000 32.000000"
 preserveAspectRatio="xMidYMid meet">

<g transform="translate(0.000000,32.000000) scale(0.100000,-0.100000)"
fill="#000000" stroke="none">
<path d="M133 263 c9 -2 25 -2 35 0 9 3 1 5 -18 5 -19 0 -27 -2 -17 -5z"/>
<path d="M190 241 c0 -41 -24 -61 -71 -61 -49 0 -63 -24 -30 -52 25 -19 81
-25 81 -8 0 6 3 9 8 9 21 -4 31 4 42 31 12 28 11 44 -5 82 -5 13 0 17 22 21
23 3 22 4 -9 6 -36 1 -38 -1 -38 -28z"/>
</g>
</svg>
