<?xml version="1.0" standalone="no"?>
<!DOCTYPE svg PUBLIC "-//W3C//DTD SVG 20010904//EN"
 "http://www.w3.org/TR/2001/REC-SVG-20010904/DTD/svg10.dtd">
<svg version="1.0" xmlns="http://www.w3.org/2000/svg"
 width="1200.000000pt" height="1200.000000pt" viewBox="0 0 1200.000000 1200.000000"
 preserveAspectRatio="xMidYMid meet">

<g transform="translate(0.000000,1200.000000) scale(0.100000,-0.100000)"
fill="#000000" stroke="none">
<path d="M4206 10243 c30 -299 236 -543 524 -621 59 -15 132 -17 795 -17 l730
0 80 23 c212 61 387 218 468 422 27 69 47 161 47 217 l0 33 -1325 0 -1325 0 6
-57z"/>
<path d="M7254 9988 l-279 -313 -2 -575 c-3 -761 -7 -862 -33 -985 -125 -587
-545 -1062 -1110 -1256 -47 -17 -139 -42 -205 -56 l-120 -27 -1185 -6 -1185
-6 -79 -22 c-283 -82 -483 -250 -602 -507 -59 -128 -78 -220 -77 -375 1 -258
64 -399 300 -677 446 -525 1003 -894 1633 -1081 358 -107 666 -148 1055 -139
249 5 401 22 619 68 667 140 1255 462 1727 945 492 505 807 1124 924 1817 59
351 59 761 0 1112 -99 582 -337 1114 -702 1567 l-102 127 722 3 722 3 80 25
c119 38 209 92 295 179 119 120 190 267 206 425 l7 66 -1165 0 -1166 0 -278
-312z m-3257 -3889 c60 -29 98 -94 97 -166 -3 -156 -199 -231 -306 -117 -34
37 -48 74 -48 130 0 131 136 212 257 153z"/>
<path d="M3857 8356 c-50 -18 -76 -42 -98 -91 -40 -86 -20 -145 83 -251 l72
-75 73 73 c82 81 103 118 103 177 0 82 -50 149 -128 171 -47 13 -58 12 -105
-4z"/>
<path d="M7569 4313 c-174 -192 -313 -350 -309 -353 5 -3 176 -4 382 -4 395 1
450 6 566 50 245 92 424 325 448 583 l7 71 -389 0 -389 0 -316 -347z"/>
<path d="M6886 2658 c-13 -18 -16 -56 -16 -209 l0 -186 -37 35 c-62 58 -115
77 -218 77 -81 0 -95 -3 -143 -29 -67 -38 -126 -102 -160 -174 -25 -52 -27
-68 -27 -177 0 -109 2 -125 27 -177 34 -72 93 -137 160 -173 41 -22 69 -30
129 -33 68 -4 84 -1 135 22 33 15 75 43 95 62 l36 35 6 -42 c8 -62 49 -87 93
-55 18 14 19 33 22 507 2 430 1 495 -13 515 -20 32 -68 32 -89 2z m-191 -389
c57 -14 126 -74 156 -136 30 -61 33 -205 5 -266 -73 -164 -265 -206 -385 -86
-61 61 -76 103 -76 214 0 83 4 107 22 140 32 60 91 114 142 130 57 17 81 18
136 4z"/>
<path d="M2670 2617 l-25 -13 -5 -369 c-5 -351 -6 -372 -26 -410 -47 -90 -166
-130 -258 -86 -25 13 -60 40 -77 62 -43 55 -64 64 -95 44 -69 -45 31 -182 164
-226 57 -19 178 -7 238 24 60 30 118 92 148 156 20 44 21 63 24 416 3 392 3
395 -43 409 -11 3 -31 0 -45 -7z"/>
<path d="M9022 2594 c-15 -10 -22 -25 -22 -48 0 -49 21 -71 70 -71 49 0 70 22
70 71 0 38 -29 64 -70 64 -14 0 -36 -7 -48 -16z"/>
<path d="M5116 2534 c-12 -11 -16 -36 -16 -95 l0 -79 -51 0 c-65 0 -89 -13
-89 -49 0 -39 22 -54 83 -55 l52 -2 5 -264 c4 -229 7 -269 23 -297 25 -46 57
-64 124 -70 70 -5 123 21 123 61 0 35 -21 48 -67 40 -30 -4 -44 -1 -63 14
l-25 20 -3 246 c-2 166 0 246 8 247 5 1 37 3 70 4 33 1 67 3 75 4 9 0 20 12
27 26 9 19 8 29 -6 50 -15 23 -22 25 -96 25 l-80 0 0 83 c0 51 -5 88 -12 95
-17 17 -64 15 -82 -4z"/>
<path d="M9596 2534 c-12 -11 -16 -36 -16 -95 l0 -79 -51 0 c-65 0 -89 -13
-89 -49 0 -39 22 -54 83 -55 l52 -2 5 -264 c4 -229 7 -269 23 -297 25 -46 57
-64 124 -70 70 -5 123 21 123 61 0 35 -21 48 -67 40 -30 -4 -44 -1 -63 14
l-25 20 -3 246 c-2 166 0 246 8 247 5 1 37 3 70 4 33 1 67 3 75 4 9 0 20 12
27 26 9 19 8 29 -6 50 -15 23 -22 25 -96 25 l-80 0 0 83 c0 51 -5 88 -12 95
-17 17 -64 15 -82 -4z"/>
<path d="M4330 2371 c-43 -14 -104 -48 -122 -68 -53 -58 -63 -165 -22 -229 36
-55 78 -80 213 -123 134 -44 164 -60 181 -101 27 -65 -22 -133 -106 -146 -91
-13 -161 9 -238 77 -50 44 -78 49 -100 18 -19 -27 -12 -45 37 -96 64 -67 122
-88 247 -88 97 0 109 2 157 29 100 55 139 160 95 258 -28 65 -71 92 -217 139
-149 48 -185 74 -185 134 0 46 13 71 48 89 74 37 174 25 246 -30 47 -36 74
-42 94 -22 35 35 -11 102 -97 141 -49 21 -188 33 -231 18z"/>
<path d="M7603 2366 c-104 -34 -185 -106 -232 -205 -23 -50 -26 -68 -26 -166
0 -98 3 -116 27 -167 35 -76 107 -151 177 -185 50 -25 67 -28 161 -28 94 0
111 3 161 28 70 34 142 109 177 185 24 51 27 69 27 167 0 104 -2 114 -32 176
-63 128 -176 200 -318 206 -49 2 -96 -3 -122 -11z m226 -118 c127 -66 177
-249 106 -393 -104 -214 -403 -180 -471 52 -44 151 33 315 169 359 56 19 139
11 196 -18z"/>
<path d="M9025 2346 c-14 -20 -15 -69 -13 -361 3 -320 4 -337 22 -351 25 -18
47 -18 72 0 18 14 19 31 22 351 3 375 2 385 -58 385 -20 0 -35 -8 -45 -24z"/>
<path d="M3182 2348 c-9 -9 -12 -80 -12 -260 0 -220 2 -253 19 -298 29 -75 64
-115 128 -147 51 -25 69 -28 153 -28 115 0 158 14 218 69 82 75 87 94 90 387
4 282 2 289 -57 289 -49 0 -51 -7 -51 -248 0 -254 -7 -299 -56 -347 -94 -94
-289 -52 -323 70 -6 24 -11 131 -11 263 0 135 -4 231 -10 243 -12 22 -68 27
-88 7z"/>
</g>
</svg>
